<svg width="40" height="40" viewBox="0 0 40 40" fill="none" xmlns="http://www.w3.org/2000/svg">
  <path d="M29.1667 36.6667H10.8333C9.72827 36.6667 8.66846 36.2277 7.8808 35.4441C7.09315 34.6604 6.66667 33.5971 6.66667 32.5V7.50001C6.66667 6.40291 7.09315 5.33968 7.8808 4.55598C8.66846 3.77228 9.72827 3.33334 10.8333 3.33334H29.1667C30.2738 3.33334 31.3336 3.77228 32.1213 4.55598C32.9089 5.33968 33.3333 6.40291 33.3333 7.50001V32.5C33.3333 33.5971 32.9089 34.6604 32.1213 35.4441C31.3336 36.2277 30.2738 36.6667 29.1667 36.6667Z" stroke="white" stroke-width="2.5" stroke-linecap="round" stroke-linejoin="round"/>
  <path d="M13.3333 13.3333H26.6667" stroke="white" stroke-width="2.5" stroke-linecap="round" stroke-linejoin="round"/>
  <path d="M13.3333 20H20" stroke="white" stroke-width="2.5" stroke-linecap="round" stroke-linejoin="round"/>
  <path d="M20 27.5C21.3807 27.5 22.5 26.3807 22.5 25C22.5 23.6193 21.3807 22.5 20 22.5C18.6193 22.5 17.5 23.6193 17.5 25C17.5 26.3807 18.6193 27.5 20 27.5Z" stroke="white" stroke-width="2.5" stroke-linecap="round" stroke-linejoin="round"/>
</svg> 