<svg width="40" height="40" viewBox="0 0 40 40" fill="none" xmlns="http://www.w3.org/2000/svg">
  <path d="M35 19.9997V9.99967C35 9.11603 34.6488 8.26824 34.0237 7.6431C33.3986 7.01796 32.5507 6.66634 31.6667 6.66634H8.33333C7.44928 6.66634 6.60143 7.01796 5.97631 7.6431C5.35119 8.26824 5 9.11603 5 9.99967V30.0003C5 30.884 5.35119 31.7318 5.97631 32.3569C6.60143 32.9821 7.44928 33.333 8.33333 33.333H20" stroke="white" stroke-width="2.5" stroke-linecap="round" stroke-linejoin="round"/>
  <path d="M5 16.6663H35" stroke="white" stroke-width="2.5" stroke-linecap="round" stroke-linejoin="round"/>
  <path d="M28.3333 35.0003C31.0947 35.0003 33.3333 32.7617 33.3333 30.0003C33.3333 27.239 31.0947 25.0003 28.3333 25.0003C25.5719 25.0003 23.3333 27.239 23.3333 30.0003C23.3333 32.7617 25.5719 35.0003 28.3333 35.0003Z" stroke="white" stroke-width="2.5" stroke-linecap="round" stroke-linejoin="round"/>
  <path d="M31.6667 33.333L36.6667 38.333" stroke="white" stroke-width="2.5" stroke-linecap="round" stroke-linejoin="round"/>
</svg> 